{"title":"Hispania.La.Leyenda.s01e07.HDTV.XviD.LFG","uid":6031068,"size":768551606,"categoryP":"video","categoryS":"tv_shows","magnet":"?xt=urn:btih:f6b405cc1f734117776c76131848eff17647fe48&amp;dn=Hispania.La.Leyenda.s01e07.HDTV.XviD.LFG&amp;tr=udp%3A%2F%2Ftracker.openbittorrent.com%3A80&amp;tr=udp%3A%2F%2Fopen.demonii.com%3A1337&amp;tr=udp%3A%2F%2Ftracker.coppersurfer.tk%3A6969&amp;tr=udp%3A%2F%2Fexodus.desync.com%3A6969","seeders":0,"leechers":1,"uploader":"c0mr4d3","files":1,"time":1292083448,"description":"_\\.avi\nFormat                           : AVI\nFormat/Info                      : Audio Video Interleave\nFile size                        : 733 MiB\nDuration                         : 1h 24mn\nOverall bit rate                 : 1 207 Kbps\nWriting application              : MEncoder SVN-r29352(20090610-gcc4.3.3)\nWriting library                  : VirtualDub build 32817/release\n\nVideo\nID                               : 0\nFormat                           : MPEG-4 Visual\nFormat profile                   : Advanced Simple@L5\nFormat settings, BVOP            : Yes\nFormat settings, QPel            : No\nFormat settings, GMC             : No warppoints\nFormat settings, Matrix          : Default (H.263)\nMuxing mode                      : Packed bitstream\nCodec ID                         : XVID\nCodec ID/Hint                    : XviD\nDuration                         : 1h 24mn\nBit rate                         : 1 064 Kbps\nWidth                            : 640 pixels\nHeight                           : 352 pixels\nDisplay aspect ratio             : 16:9\nFrame rate                       : 38.671 fps\nColor space                      : YUV\nChroma subsampling               : 4:2:0\nBit depth                        : 8 bits\nScan type                        : Progressive\nBits/(Pixel*Frame)               : 0.122\nStream size                      : 646 MiB (88%)\nWriting library                  : XviD 1.2.1 (UTC 2008-12-04)\n\nAudio\nID                               : 1\nFormat                           : MPEG Audio\nFormat version                   : Version 1\nFormat profile                   : Layer 3\nMode                             : Joint stereo\nMode extension                   : MS Stereo\nCodec ID                         : 55\nCodec ID/Hint                    : MP3\nDuration                         : 1h 24mn\nBit rate mode                    : Constant\nBit rate                         : 128 Kbps\nChannel(s)                       : 2 channels\nSampling rate                    : 44.1 KHz\nVideo delay                      : 24ms\nStream size                      : 77.7 MiB (11%)\nAlignment                        : Split accross interleaves\nInterleave, duration             : 26 ms (1.00 video frame)\nInterleave, preload duration     : 500 ms\n","torrent":{"xt":"urn:btih:f6b405cc1f734117776c76131848eff17647fe48","amp;dn":"Hispania.La.Leyenda.s01e07.HDTV.XviD.LFG","amp;tr":["udp%3A%2F%2Ftracker.openbittorrent.com%3A80","udp%3A%2F%2Fopen.demonii.com%3A1337","udp%3A%2F%2Ftracker.coppersurfer.tk%3A6969","udp%3A%2F%2Fexodus.desync.com%3A6969"],"infoHash":"f6b405cc1f734117776c76131848eff17647fe48","infoHashBuffer":{"type":"Buffer","data":[246,180,5,204,31,115,65,23,119,108,118,19,24,72,239,241,118,71,254,72]},"announce":[],"urlList":[]}}